<?xml version="1.0" encoding="UTF-8" standalone="no"?>
<!-- Created with Inkscape (http://www.inkscape.org/) -->

<svg
   width="100.19976mm"
   height="86.766853mm"
   viewBox="0 0 100.19976 86.766855"
   version="1.1"
   id="svg5"
   inkscape:version="1.2.2 (b0a8486541, 2022-12-01)"
   sodipodi:docname="example.svg"
   xmlns:inkscape="http://www.inkscape.org/namespaces/inkscape"
   xmlns:sodipodi="http://sodipodi.sourceforge.net/DTD/sodipodi-0.dtd"
   xmlns="http://www.w3.org/2000/svg"
   xmlns:svg="http://www.w3.org/2000/svg">
  <sodipodi:namedview
     id="namedview7"
     pagecolor="#ffffff"
     bordercolor="#000000"
     borderopacity="0.25"
     inkscape:showpageshadow="2"
     inkscape:pageopacity="0.0"
     inkscape:pagecheckerboard="0"
     inkscape:deskcolor="#d1d1d1"
     inkscape:document-units="mm"
     showgrid="false"
     inkscape:zoom="0.53543895"
     inkscape:cx="83.109381"
     inkscape:cy="562.15559"
     inkscape:window-width="1920"
     inkscape:window-height="1029"
     inkscape:window-x="0"
     inkscape:window-y="27"
     inkscape:window-maximized="1"
     inkscape:current-layer="g1439" />
  <defs
     id="defs2" />
  <g
     inkscape:label="Layer 1"
     inkscape:groupmode="layer"
     id="layer1">
    <g
       inkscape:label=""
       transform="translate(21.9894, 148.737)"
       id="g1439">
      <g
         id="g1797"
         transform="translate(0,-2.3836145)">
        <rect
           style="fill:#00ffff;stroke:#000000;stroke-width:1.73465"
           id="rect111"
           width="85.967422"
           height="69.681641"
           x="7.116169"
           y="10.926221"
           transform="translate(-21.9894,-148.737)" />
        <text
           xml:space="preserve"
           style="font-size:6.23226px;fill:#00ffff;stroke:#000000;stroke-width:3.40497"
           x="18.710348"
           y="29.875948"
           id="text219"
           transform="translate(-21.9894,-148.737)"><tspan
             sodipodi:role="line"
             id="tspan217"
             style="font-style:normal;font-variant:normal;font-weight:normal;font-stretch:normal;font-family:Beteckna;-inkscape-font-specification:Beteckna;fill:#000000;stroke:none;stroke-width:3.40497"
             x="18.710348"
             y="29.875948">Example SVG image</tspan></text>
        <g
           inkscape:label=""
           id="g1678"
           transform="translate(-1.2045447,-105.09534)">
          <g
             id="surface1"
             transform="matrix(0.352778,0,0,0.352778,-0.42168,-0.779374)">
            <g
               style="fill:#000000;fill-opacity:1"
               id="g74">
              <g
                 id="use72"
                 transform="translate(1.196,23.141001)">
                <path
                   style="stroke:none"
                   d="M 6.421875,-9.34375 H 9.21875 C 8.546875,-6.5625 8.125,-4.765625 8.125,-2.78125 c 0,0.359375 0,3.03125 1.015625,3.03125 0.53125,0 0.96875,-0.46875 0.96875,-0.890625 0,-0.125 0,-0.171875 -0.171875,-0.546875 -0.671875,-1.71875 -0.671875,-3.84375 -0.671875,-4.015625 0,-0.15625 0,-1.90625 0.515625,-4.140625 h 2.78125 c 0.328125,0 1.140625,0 1.140625,-0.796875 0,-0.546875 -0.46875,-0.546875 -0.921875,-0.546875 H 4.640625 c -0.578125,0 -1.421875,0 -2.5625,1.21875 -0.640625,0.71875 -1.4375,2.03125 -1.4375,2.1875 0,0.140625 0.125,0.1875 0.28125,0.1875 0.171875,0 0.1875,-0.0625 0.3125,-0.21875 C 2.53125,-9.34375 3.8125,-9.34375 4.4375,-9.34375 H 5.84375 C 5.296875,-7.484375 4.6875,-5.328125 2.65625,-0.984375 2.453125,-0.59375 2.453125,-0.546875 2.453125,-0.390625 2.453125,0.125 2.90625,0.25 3.125,0.25 3.84375,0.25 4.046875,-0.390625 4.34375,-1.4375 4.734375,-2.703125 4.734375,-2.75 4.984375,-3.734375 Z m 0,0"
                   id="path145" />
              </g>
            </g>
            <g
               style="fill:#000000;fill-opacity:1"
               id="g78">
              <g
                 id="use76"
                 transform="translate(15.852,14.146)">
                <path
                   style="stroke:none"
                   d="M 7.1875,-2.671875 H 6.875 c -0.171875,1.21875 -0.3125,1.4375 -0.390625,1.53125 C 6.40625,-1 5.171875,-1 4.921875,-1 H 1.625 c 0.609375,-0.671875 1.8125,-1.890625 3.28125,-3.3125 1.046875,-0.984375 2.28125,-2.15625 2.28125,-3.859375 0,-2.03125 -1.625,-3.203125 -3.4375,-3.203125 -1.890625,0 -3.046875,1.65625 -3.046875,3.21875 0,0.671875 0.5,0.75 0.703125,0.75 0.171875,0 0.6875,-0.09375 0.6875,-0.703125 0,-0.53125 -0.4375,-0.6875 -0.6875,-0.6875 -0.09375,0 -0.203125,0.015625 -0.265625,0.046875 0.328125,-1.453125 1.328125,-2.1875 2.375,-2.1875 1.5,0 2.46875,1.1875 2.46875,2.765625 0,1.484375 -0.875,2.78125 -1.859375,3.90625 l -3.421875,3.875 V 0 h 6.0625 z m 0,0"
                   id="path149" />
              </g>
            </g>
            <path
               style="fill:none;stroke:#000000;stroke-width:0.956;stroke-linecap:butt;stroke-linejoin:miter;stroke-miterlimit:10;stroke-opacity:1"
               d="M -6.875e-4,-0.00184375 H 23.050094"
               transform="matrix(1,0,0,-1,1.196,33.713)"
               id="path80" />
            <g
               style="fill:#000000;fill-opacity:1"
               id="g84">
              <g
                 id="use82"
                 transform="translate(7.0370002,56.912998)">
                <path
                   style="stroke:none"
                   d="m 2.625,-8.546875 c 0,-5.921875 2.78125,-7.265625 4.390625,-7.265625 0.515625,0 1.78125,0.09375 2.28125,1.0625 -0.40625,0 -1.140625,0 -1.140625,0.875 0,0.671875 0.546875,0.890625 0.890625,0.890625 0.21875,0 0.890625,-0.09375 0.890625,-0.9375 0,-1.5625 -1.234375,-2.453125 -2.953125,-2.453125 -2.9375,0 -6.046875,3.0625 -6.046875,8.546875 0,6.734375 2.796875,8.21875 4.78125,8.21875 2.40625,0 4.6875,-2.15625 4.6875,-5.46875 0,-3.09375 -2,-5.359375 -4.53125,-5.359375 -1.515625,0 -2.625,1 -3.25,2.734375 z m 3.09375,8.34375 c -3.046875,0 -3.046875,-4.5625 -3.046875,-5.46875 0,-1.78125 0.84375,-4.359375 3.15625,-4.359375 0.421875,0 1.625,0 2.453125,1.703125 0.4375,0.96875 0.4375,1.984375 0.4375,3.21875 0,1.34375 0,2.328125 -0.515625,3.328125 -0.546875,1.015625 -1.34375,1.578125 -2.484375,1.578125 z m 0,0"
                   id="path153" />
              </g>
            </g>
            <g
               style="fill:#000000;fill-opacity:1"
               id="g88">
              <g
                 id="use86"
                 transform="translate(32.327,39.91)">
                <path
                   style="stroke:none"
                   d="m 15.9375,-7.953125 c 0.375,0 0.734375,0 0.734375,-0.421875 0,-0.453125 -0.421875,-0.453125 -0.84375,-0.453125 H 1.984375 c -0.421875,0 -0.84375,0 -0.84375,0.453125 0,0.421875 0.375,0.421875 0.75,0.421875 z m -0.109375,4.40625 c 0.421875,0 0.84375,0 0.84375,-0.4375 0,-0.421875 -0.359375,-0.421875 -0.734375,-0.421875 H 1.890625 c -0.375,0 -0.75,0 -0.75,0.421875 0,0.4375 0.421875,0.4375 0.84375,0.4375 z m 0,0"
                   id="path157" />
              </g>
            </g>
            <g
               style="fill:#000000;fill-opacity:1"
               id="g96">
              <g
                 id="use90"
                 transform="translate(63.553787,39.91)">
                <path
                   style="stroke:none"
                   d="m 3.796875,-17.203125 -2.953125,0.28125 v 0.640625 c 1.453125,0 1.6875,0.15625 1.6875,1.34375 v 13.234375 c 0,0.9375 -0.109375,1.0625 -1.6875,1.0625 V 0 c 0.59375,-0.046875 1.6875,-0.046875 2.296875,-0.046875 0.65625,0 1.734375,0 2.34375,0.046875 v -0.640625 c -1.59375,0 -1.6875,-0.109375 -1.6875,-1.0625 z m 0,0"
                   id="path161" />
              </g>
              <g
                 id="use92"
                 transform="translate(69.740646,39.91)">
                <path
                   style="stroke:none"
                   d="m 3.84375,-15.265625 c 0,-0.546875 -0.453125,-1.015625 -1.015625,-1.015625 -0.546875,0 -1.015625,0.453125 -1.015625,1.015625 0,0.546875 0.4375,1.015625 1.015625,1.015625 0.546875,0 1.015625,-0.4375 1.015625,-1.015625 z m -2.90625,4.6875 V -9.9375 c 1.390625,0 1.59375,0.15625 1.59375,1.34375 v 6.890625 c 0,0.9375 -0.109375,1.0625 -1.6875,1.0625 V 0 C 1.4375,-0.046875 2.5,-0.046875 3.125,-0.046875 c 0.59375,0 1.609375,0 2.171875,0.046875 v -0.640625 c -1.453125,0 -1.5,-0.15625 -1.5,-1.046875 v -9.171875 z m 0,0"
                   id="path165" />
              </g>
              <g
                 id="use94"
                 transform="translate(75.927505,39.91)">
                <path
                   style="stroke:none"
                   d="m 16.75,-7.53125 c 0,-1.234375 -0.21875,-3.328125 -3.171875,-3.328125 -1.6875,0 -2.84375,1.140625 -3.296875,2.484375 H 10.26562 C 9.96875,-10.40625 8.5,-10.859375 7.109375,-10.859375 c -1.953125,0 -2.96875,1.515625 -3.34375,2.515625 h -0.03125 v -2.515625 L 0.8125,-10.578125 V -9.9375 c 1.46875,0 1.6875,0.15625 1.6875,1.34375 v 6.890625 c 0,0.9375 -0.09375,1.0625 -1.6875,1.0625 V 0 C 1.40625,-0.046875 2.5,-0.046875 3.140625,-0.046875 c 0.65625,0 1.765625,0 2.359375,0.046875 v -0.640625 c -1.578125,0 -1.6875,-0.109375 -1.6875,-1.0625 V -6.46875 c 0,-2.28125 1.390625,-3.984375 3.125,-3.984375 1.828125,0 2.03125,1.625 2.03125,2.828125 v 5.921875 c 0,0.9375 -0.09375,1.0625 -1.6875,1.0625 V 0 c 0.59375,-0.046875 1.6875,-0.046875 2.328125,-0.046875 0.65625,0 1.765625,0 2.359375,0.046875 v -0.640625 c -1.578125,0 -1.6875,-0.109375 -1.6875,-1.0625 V -6.46875 c 0,-2.28125 1.390625,-3.984375 3.125,-3.984375 1.828125,0 2.03125,1.625 2.03125,2.828125 v 5.921875 c 0,0.9375 -0.09375,1.0625 -1.6875,1.0625 V 0 c 0.59375,-0.046875 1.6875,-0.046875 2.328125,-0.046875 0.65625,0 1.765625,0 2.359375,0.046875 v -0.640625 c -1.59375,0 -1.6875,-0.109375 -1.6875,-1.0625 z m 0,0"
                   id="path169" />
              </g>
            </g>
            <g
               style="fill:#000000;fill-opacity:1"
               id="g100">
              <g
                 id="use98"
                 transform="translate(57.055,54.256001)">
                <path
                   style="stroke:none"
                   d="M 3.546875,-5.046875 C 3.578125,-5.140625 4.015625,-6.015625 4.65625,-6.5625 5.09375,-6.96875 5.6875,-7.25 6.359375,-7.25 c 0.6875,0 0.921875,0.515625 0.921875,1.203125 0,0.984375 -0.703125,2.953125 -1.046875,3.875 -0.15625,0.421875 -0.25,0.640625 -0.25,0.953125 0,0.765625 0.546875,1.390625 1.375,1.390625 1.59375,0 2.203125,-2.53125 2.203125,-2.640625 0,-0.078125 -0.078125,-0.15625 -0.171875,-0.15625 -0.15625,0 -0.171875,0.0625 -0.265625,0.359375 -0.390625,1.40625 -1.046875,2.09375 -1.71875,2.09375 -0.171875,0 -0.453125,-0.015625 -0.453125,-0.5625 0,-0.4375 0.1875,-0.953125 0.296875,-1.1875 0.34375,-0.953125 1.0625,-2.875 1.0625,-3.859375 0,-1.03125 -0.59375,-1.8125 -1.90625,-1.8125 C 4.875,-7.59375 4.0625,-6.515625 3.75,-6.078125 3.703125,-7.0625 3,-7.59375 2.234375,-7.59375 c -0.546875,0 -0.921875,0.328125 -1.21875,0.90625 -0.3125,0.625 -0.546875,1.65625 -0.546875,1.734375 0,0.0625 0.0625,0.15625 0.1875,0.15625 0.140625,0 0.15625,-0.03125 0.25,-0.421875 C 1.1875,-6.265625 1.5,-7.25 2.1875,-7.25 c 0.390625,0 0.53125,0.28125 0.53125,0.796875 0,0.375 -0.171875,1.046875 -0.296875,1.578125 l -0.46875,1.859375 C 1.875,-2.6875 1.6875,-1.90625 1.59375,-1.59375 c -0.109375,0.4375 -0.296875,1.25 -0.296875,1.328125 0,0.25 0.1875,0.4375 0.4375,0.4375 0.21875,0 0.453125,-0.109375 0.59375,-0.359375 0.03125,-0.09375 0.1875,-0.6875 0.265625,-1.03125 l 0.390625,-1.546875 z m 0,0"
                   id="path173" />
              </g>
            </g>
            <g
               style="fill:#000000;fill-opacity:1"
               id="g106">
              <g
                 id="use102"
                 transform="translate(67.116997,54.256001)">
                <path
                   style="stroke:none"
                   d="m 14.359375,-3.953125 c -0.953125,0.71875 -1.40625,1.421875 -1.546875,1.640625 -0.78125,1.1875 -0.921875,2.28125 -0.921875,2.296875 0,0.203125 0.21875,0.203125 0.359375,0.203125 0.28125,0 0.296875,-0.03125 0.375,-0.34375 0.390625,-1.6875 1.40625,-3.125 3.359375,-3.921875 0.203125,-0.078125 0.25,-0.109375 0.25,-0.234375 0,-0.109375 -0.09375,-0.171875 -0.140625,-0.1875 -0.75,-0.28125 -2.828125,-1.140625 -3.484375,-4.046875 -0.0625,-0.203125 -0.07813,-0.25 -0.359375,-0.25 -0.140625,0 -0.359375,0 -0.359375,0.203125 0,0.03125 0.15625,1.125 0.890625,2.28125 0.34375,0.515625 0.84375,1.109375 1.578125,1.65625 H 1.5625 c -0.3125,0 -0.609375,0 -0.609375,0.34375 0,0.359375 0.296875,0.359375 0.609375,0.359375 z m 0,0"
                   id="path177" />
              </g>
              <g
                 id="use104"
                 transform="translate(84.332397,54.256001)">
                <path
                   style="stroke:none"
                   d="M 8.75,-4.671875 C 7.8125,-5.84375 7.609375,-6.09375 7.078125,-6.53125 c -0.96875,-0.765625 -1.9375,-1.078125 -2.8125,-1.078125 -2.015625,0 -3.3125,1.890625 -3.3125,3.90625 0,1.984375 1.265625,3.890625 3.25,3.890625 1.984375,0 3.40625,-1.5625 4.25,-2.9375 0.9375,1.171875 1.140625,1.421875 1.671875,1.859375 0.96875,0.765625 1.921875,1.078125 2.8125,1.078125 2.015625,0 3.3125,-1.890625 3.3125,-3.90625 0,-1.984375 -1.265625,-3.890625 -3.25,-3.890625 -1.984375,0 -3.40625,1.5625 -4.25,2.9375 z m 0.4375,0.59375 c 0.71875,-1.25 1.984375,-2.984375 3.9375,-2.984375 1.828125,0 2.75,1.796875 2.75,3.34375 0,1.6875 -1.15625,3.078125 -2.671875,3.078125 -1,0 -1.765625,-0.71875 -2.125,-1.078125 -0.4375,-0.46875 -0.828125,-1 -1.890625,-2.359375 z M 8,-3.34375 c -0.703125,1.25 -1.96875,2.984375 -3.921875,2.984375 -1.828125,0 -2.75,-1.796875 -2.75,-3.34375 0,-1.6875 1.15625,-3.078125 2.671875,-3.078125 1,0 1.765625,0.71875 2.125,1.078125 0.4375,0.46875 0.828125,1 1.875,2.359375 z m 0,0"
                   id="path181" />
              </g>
            </g>
            <g
               style="fill:#000000;fill-opacity:1"
               id="g110">
              <g
                 id="use108"
                 transform="translate(117.916,9.8030005)">
                <path
                   style="stroke:none"
                   d="M 3.546875,-5.046875 C 3.578125,-5.140625 4.015625,-6.015625 4.65625,-6.5625 5.09375,-6.96875 5.6875,-7.25 6.359375,-7.25 c 0.6875,0 0.921875,0.515625 0.921875,1.203125 0,0.984375 -0.703125,2.953125 -1.046875,3.875 -0.15625,0.421875 -0.25,0.640625 -0.25,0.953125 0,0.765625 0.546875,1.390625 1.375,1.390625 1.59375,0 2.203125,-2.53125 2.203125,-2.640625 0,-0.078125 -0.078125,-0.15625 -0.171875,-0.15625 -0.15625,0 -0.171875,0.0625 -0.265625,0.359375 -0.390625,1.40625 -1.046875,2.09375 -1.71875,2.09375 -0.171875,0 -0.453125,-0.015625 -0.453125,-0.5625 0,-0.4375 0.1875,-0.953125 0.296875,-1.1875 0.34375,-0.953125 1.0625,-2.875 1.0625,-3.859375 0,-1.03125 -0.59375,-1.8125 -1.90625,-1.8125 C 4.875,-7.59375 4.0625,-6.515625 3.75,-6.078125 3.703125,-7.0625 3,-7.59375 2.234375,-7.59375 c -0.546875,0 -0.921875,0.328125 -1.21875,0.90625 -0.3125,0.625 -0.546875,1.65625 -0.546875,1.734375 0,0.0625 0.0625,0.15625 0.1875,0.15625 0.140625,0 0.15625,-0.03125 0.25,-0.421875 C 1.1875,-6.265625 1.5,-7.25 2.1875,-7.25 c 0.390625,0 0.53125,0.28125 0.53125,0.796875 0,0.375 -0.171875,1.046875 -0.296875,1.578125 l -0.46875,1.859375 C 1.875,-2.6875 1.6875,-1.90625 1.59375,-1.59375 c -0.109375,0.4375 -0.296875,1.25 -0.296875,1.328125 0,0.25 0.1875,0.4375 0.4375,0.4375 0.21875,0 0.453125,-0.109375 0.59375,-0.359375 0.03125,-0.09375 0.1875,-0.6875 0.265625,-1.03125 l 0.390625,-1.546875 z m 0,0"
                   id="path185" />
              </g>
            </g>
            <g
               style="fill:#000000;fill-opacity:1"
               id="g114">
              <g
                 id="use112"
                 transform="translate(105.679,16.976)">
                <path
                   style="stroke:none"
                   d="M 30.265625,33.46875 33.15625,25.8125 H 32.5625 c -0.9375,2.5 -3.46875,4.125 -6.21875,4.828125 -0.5,0.125 -2.84375,0.75 -7.4375,0.75 H 4.5 l 12.15625,-14.28125 c 0.171875,-0.1875 0.21875,-0.25 0.21875,-0.375 0,-0.04687 0,-0.125 -0.171875,-0.359375 L 5.5625,1.140625 h 13.109375 c 3.203125,0 5.375,0.34375 5.59375,0.390625 1.296875,0.1875 3.375,0.59375 5.265625,1.796875 0.59375,0.375 2.21875,1.453125 3.03125,3.390625 h 0.59375 L 30.265625,0 h -28.25 C 1.453125,0 1.4375,0.03125 1.359375,0.171875 1.34375,0.234375 1.34375,0.6875 1.34375,0.953125 l 12.640625,17.3125 -12.375,14.515625 c -0.25,0.28125 -0.25,0.40625 -0.25,0.421875 0,0.265625 0.21875,0.265625 0.65625,0.265625 z m 0,0"
                   id="path189" />
              </g>
            </g>
            <g
               style="fill:#000000;fill-opacity:1"
               id="g118">
              <g
                 id="use116"
                 transform="translate(108.131,68.781998)">
                <path
                   style="stroke:none"
                   d="m 4.84375,-11.515625 c 0.015625,-0.07813 0.046875,-0.171875 0.046875,-0.265625 0,-0.171875 -0.171875,-0.171875 -0.203125,-0.171875 -0.015625,0 -0.640625,0.0625 -0.953125,0.09375 -0.296875,0.01563 -0.546875,0.04687 -0.859375,0.0625 -0.40625,0.03125 -0.53125,0.04687 -0.53125,0.359375 0,0.171875 0.171875,0.171875 0.34375,0.171875 0.875,0 0.875,0.15625 0.875,0.328125 0,0.07813 0,0.109375 -0.078125,0.421875 l -2.46875,9.84375 c -0.0625,0.265625 -0.0625,0.296875 -0.0625,0.390625 0,0.390625 0.28125,0.453125 0.453125,0.453125 0.484375,0 0.59375,-0.375 0.734375,-0.90625 L 2.9375,-3.953125 c 1.25,0.125 1.984375,0.640625 1.984375,1.46875 0,0.109375 0,0.171875 -0.046875,0.4375 -0.078125,0.25 -0.078125,0.46875 -0.078125,0.546875 0,1 0.65625,1.671875 1.546875,1.671875 0.78125,0 1.203125,-0.71875 1.328125,-0.96875 0.375,-0.625 0.59375,-1.59375 0.59375,-1.671875 0,-0.078125 -0.0625,-0.15625 -0.171875,-0.15625 -0.15625,0 -0.171875,0.078125 -0.234375,0.359375 C 7.609375,-1.375 7.25,-0.171875 6.375,-0.171875 6.03125,-0.171875 5.796875,-0.34375 5.796875,-1 5.796875,-1.328125 5.875,-1.703125 5.9375,-1.96875 6.015625,-2.265625 6.015625,-2.296875 6.015625,-2.5 c 0,-1.015625 -0.921875,-1.578125 -2.5,-1.78125 C 4.125,-4.671875 4.75,-5.34375 5,-5.59375 5.96875,-6.703125 6.640625,-7.25 7.4375,-7.25 c 0.390625,0 0.5,0.109375 0.625,0.203125 -0.640625,0.078125 -0.875,0.515625 -0.875,0.859375 0,0.421875 0.3125,0.5625 0.5625,0.5625 0.46875,0 0.875,-0.40625 0.875,-0.953125 0,-0.5 -0.390625,-1.015625 -1.171875,-1.015625 -0.9375,0 -1.71875,0.671875 -2.9375,2.046875 C 4.34375,-5.34375 3.703125,-4.6875 3.0625,-4.4375 Z m 0,0"
                   id="path193" />
              </g>
            </g>
            <g
               style="fill:#000000;fill-opacity:1"
               id="g124">
              <g
                 id="use120"
                 transform="translate(117.476,68.781998)">
                <path
                   style="stroke:none"
                   d="m 11.078125,-5.53125 c 0.25,0 0.515625,0 0.515625,-0.28125 C 11.59375,-6.125 11.296875,-6.125 11,-6.125 H 1.375 c -0.296875,0 -0.578125,0 -0.578125,0.3125 0,0.28125 0.25,0.28125 0.515625,0.28125 z M 11,-2.46875 c 0.296875,0 0.59375,0 0.59375,-0.296875 0,-0.296875 -0.265625,-0.296875 -0.515625,-0.296875 H 1.3125 c -0.265625,0 -0.515625,0 -0.515625,0.296875 0,0.296875 0.28125,0.296875 0.578125,0.296875 z m 0,0"
                   id="path197" />
              </g>
              <g
                 id="use122"
                 transform="translate(129.86765,68.781998)">
                <path
                   style="stroke:none"
                   d="m 4.578125,-11 c 0,-0.359375 -0.015625,-0.375 -0.25,-0.375 -0.671875,0.796875 -1.6875,1.0625 -2.65625,1.09375 -0.046875,0 -0.140625,0 -0.15625,0.03125 C 1.5,-10.203125 1.5,-10.171875 1.5,-9.8125 c 0.53125,0 1.421875,-0.109375 2.109375,-0.515625 V -1.25 c 0,0.59375 -0.03125,0.796875 -1.515625,0.796875 H 1.578125 V 0 c 0.828125,-0.015625 1.6875,-0.03125 2.515625,-0.03125 0.828125,0 1.6875,0.015625 2.515625,0.03125 V -0.453125 H 6.09375 c -1.484375,0 -1.515625,-0.1875 -1.515625,-0.796875 z m 0,0"
                   id="path201" />
              </g>
            </g>
            <g
               style="fill:#000000;fill-opacity:1"
               id="g128">
              <g
                 id="use126"
                 transform="translate(150.783,23.141001)">
                <path
                   style="stroke:none"
                   d="m 6.59375,-15.828125 c 0,-0.53125 -0.03125,-0.546875 -0.375,-0.546875 -0.96875,1.15625 -2.421875,1.53125 -3.8125,1.578125 -0.078125,0 -0.203125,0 -0.21875,0.04687 -0.03125,0.0625 -0.03125,0.109375 -0.03125,0.625 0.765625,0 2.0625,-0.15625 3.046875,-0.75 v 13.0625 c 0,0.875 -0.046875,1.171875 -2.1875,1.171875 H 2.28125 V 0 c 1.1875,-0.03125 2.421875,-0.046875 3.609375,-0.046875 1.203125,0 2.4375,0.015625 3.625,0.046875 v -0.640625 h -0.75 c -2.125,0 -2.171875,-0.28125 -2.171875,-1.171875 z m 0,0"
                   id="path205" />
              </g>
            </g>
            <path
               style="fill:none;stroke:#000000;stroke-width:0.956;stroke-linecap:butt;stroke-linejoin:miter;stroke-miterlimit:10;stroke-opacity:1"
               d="M -3.125e-5,-0.00184375 H 21.847625"
               transform="matrix(1,0,0,-1,145.543,33.713)"
               id="path130" />
            <g
               style="fill:#000000;fill-opacity:1"
               id="g134">
              <g
                 id="use132"
                 transform="translate(145.543,56.912998)">
                <path
                   style="stroke:none"
                   d="m 6.96875,-16.578125 c 0.015625,-0.09375 0.0625,-0.25 0.0625,-0.375 0,-0.25 -0.234375,-0.25 -0.296875,-0.25 -0.015625,0 -0.90625,0.07813 -1.359375,0.125 -0.421875,0.03125 -0.796875,0.07813 -1.234375,0.109375 -0.59375,0.04687 -0.765625,0.0625 -0.765625,0.515625 0,0.25 0.25,0.25 0.484375,0.25 1.265625,0 1.265625,0.21875 1.265625,0.46875 0,0.09375 0,0.140625 -0.125,0.59375 L 1.46875,-0.96875 c -0.109375,0.375 -0.109375,0.421875 -0.109375,0.578125 0,0.546875 0.421875,0.640625 0.671875,0.640625 0.6875,0 0.84375,-0.546875 1.046875,-1.3125 l 1.15625,-4.640625 C 6.015625,-5.5 7.09375,-4.765625 7.09375,-3.5625 c 0,0.140625 0,0.234375 -0.078125,0.609375 -0.109375,0.375 -0.109375,0.671875 -0.109375,0.796875 0,1.4375 0.953125,2.40625 2.21875,2.40625 1.140625,0 1.734375,-1.046875 1.921875,-1.390625 0.53125,-0.921875 0.84375,-2.296875 0.84375,-2.40625 0,-0.125 -0.09375,-0.21875 -0.25,-0.21875 -0.21875,0 -0.234375,0.09375 -0.34375,0.5 -0.34375,1.28125 -0.859375,3.015625 -2.125,3.015625 -0.5,0 -0.828125,-0.25 -0.828125,-1.1875 0,-0.46875 0.109375,-1.015625 0.203125,-1.390625 0.109375,-0.4375 0.109375,-0.46875 0.109375,-0.765625 0,-1.46875 -1.328125,-2.28125 -3.59375,-2.578125 0.890625,-0.546875 1.78125,-1.515625 2.125,-1.875 1.40625,-1.59375 2.375,-2.390625 3.515625,-2.390625 0.578125,0 0.71875,0.15625 0.890625,0.296875 -0.90625,0.109375 -1.265625,0.75 -1.265625,1.25 0,0.59375 0.46875,0.78125 0.828125,0.78125 0.671875,0 1.265625,-0.5625 1.265625,-1.359375 0,-0.71875 -0.578125,-1.453125 -1.6875,-1.453125 -1.359375,0 -2.484375,0.953125 -4.234375,2.9375 -0.25,0.296875 -1.171875,1.25 -2.09375,1.59375 z m 0,0"
                   id="path209" />
              </g>
            </g>
            <g
               style="fill:#000000;fill-opacity:1"
               id="g138">
              <g
                 id="use136"
                 transform="translate(158.998,49.751999)">
                <path
                   style="stroke:none"
                   d="M 7.1875,-2.671875 H 6.875 c -0.171875,1.21875 -0.3125,1.4375 -0.390625,1.53125 C 6.40625,-1 5.171875,-1 4.921875,-1 H 1.625 c 0.609375,-0.671875 1.8125,-1.890625 3.28125,-3.3125 1.046875,-0.984375 2.28125,-2.15625 2.28125,-3.859375 0,-2.03125 -1.625,-3.203125 -3.4375,-3.203125 -1.890625,0 -3.046875,1.65625 -3.046875,3.21875 0,0.671875 0.5,0.75 0.703125,0.75 0.171875,0 0.6875,-0.09375 0.6875,-0.703125 0,-0.53125 -0.4375,-0.6875 -0.6875,-0.6875 -0.09375,0 -0.203125,0.015625 -0.265625,0.046875 0.328125,-1.453125 1.328125,-2.1875 2.375,-2.1875 1.5,0 2.46875,1.1875 2.46875,2.765625 0,1.484375 -0.875,2.78125 -1.859375,3.90625 l -3.421875,3.875 V 0 h 6.0625 z m 0,0"
                   id="path213" />
              </g>
            </g>
          </g>
        </g>
      </g>
    </g>
  </g>
</svg>
